<svg width="158" height="48" viewBox="0 0 158 48" fill="none" xmlns="http://www.w3.org/2000/svg">
<circle cx="22.5" cy="22.5" r="22.5" fill="white"/>
<path d="M62.7713 19H59.4759L64.4972 4.45455H68.4602L73.4744 19H70.179L66.5355 7.77841H66.4219L62.7713 19ZM62.5653 13.2827H70.3494V15.6832H62.5653V13.2827ZM78.3004 4.45455V19H75.2251V4.45455H78.3004ZM80.2766 6.99006V4.45455H92.2227V6.99006H87.7695V19H84.7298V6.99006H80.2766ZM103.174 4.45455H106.25V13.9006C106.25 14.9612 105.996 15.8892 105.49 16.6847C104.988 17.4801 104.285 18.1004 103.38 18.5455C102.476 18.9858 101.422 19.206 100.22 19.206C99.0124 19.206 97.9566 18.9858 97.0522 18.5455C96.1478 18.1004 95.4447 17.4801 94.9428 16.6847C94.4409 15.8892 94.19 14.9612 94.19 13.9006V4.45455H97.2653V13.6378C97.2653 14.1918 97.386 14.6842 97.6275 15.1151C97.8737 15.5459 98.2193 15.8845 98.6644 16.1307C99.1095 16.3769 99.628 16.5 100.22 16.5C100.816 16.5 101.335 16.3769 101.775 16.1307C102.22 15.8845 102.564 15.5459 102.805 15.1151C103.051 14.6842 103.174 14.1918 103.174 13.6378V4.45455ZM60.2642 43V28.4545H63.3395V34.456H69.5824V28.4545H72.6506V43H69.5824V36.9915H63.3395V43H60.2642ZM80.1009 43.2131C78.9787 43.2131 78.0128 42.9858 77.2031 42.5312C76.3982 42.072 75.7779 41.4233 75.3423 40.5852C74.9067 39.7424 74.6889 38.7457 74.6889 37.5952C74.6889 36.473 74.9067 35.4882 75.3423 34.6406C75.7779 33.7931 76.3911 33.1326 77.1818 32.6591C77.9773 32.1856 78.91 31.9489 79.9801 31.9489C80.6998 31.9489 81.3698 32.0649 81.9901 32.2969C82.6151 32.5241 83.1596 32.8674 83.6236 33.3267C84.0923 33.786 84.4569 34.3636 84.7173 35.0597C84.9777 35.7509 85.108 36.5606 85.108 37.4886V38.3196H75.8963V36.4446H82.2599C82.2599 36.009 82.1652 35.6231 81.9759 35.2869C81.7865 34.9508 81.5237 34.688 81.1875 34.4986C80.8561 34.3045 80.4702 34.2074 80.0298 34.2074C79.5705 34.2074 79.1634 34.3139 78.8082 34.527C78.4579 34.7353 78.1832 35.017 77.9844 35.3722C77.7855 35.7225 77.6837 36.1132 77.679 36.544V38.3267C77.679 38.8665 77.7784 39.3329 77.9773 39.7259C78.1809 40.1188 78.4673 40.4219 78.8366 40.6349C79.206 40.848 79.6439 40.9545 80.1506 40.9545C80.4867 40.9545 80.7945 40.9072 81.0739 40.8125C81.3532 40.7178 81.5923 40.5758 81.7912 40.3864C81.9901 40.197 82.1416 39.965 82.2457 39.6903L85.044 39.875C84.902 40.5473 84.6108 41.1345 84.1705 41.6364C83.7348 42.1335 83.1714 42.5218 82.4801 42.8011C81.7936 43.0758 81.0005 43.2131 80.1009 43.2131ZM90.108 28.4545V43H87.0824V28.4545H90.108ZM92.5316 47.0909V32.0909H95.5146V33.9233H95.6495C95.7821 33.6297 95.9738 33.3314 96.2248 33.0284C96.4805 32.7206 96.8119 32.465 97.2191 32.2614C97.631 32.053 98.1424 31.9489 98.7532 31.9489C99.5487 31.9489 100.283 32.1572 100.955 32.5739C101.627 32.9858 102.165 33.6084 102.567 34.4418C102.97 35.2704 103.171 36.3097 103.171 37.5597C103.171 38.7765 102.974 39.804 102.581 40.642C102.193 41.4754 101.663 42.1075 100.99 42.5384C100.323 42.9645 99.5747 43.1776 98.7461 43.1776C98.159 43.1776 97.6594 43.0805 97.2475 42.8864C96.8403 42.6922 96.5065 42.4484 96.2461 42.1548C95.9857 41.8565 95.7868 41.5559 95.6495 41.2528H95.5572V47.0909H92.5316ZM95.4933 37.5455C95.4933 38.1941 95.5832 38.7599 95.7631 39.2429C95.9431 39.7259 96.2035 40.1023 96.5444 40.3722C96.8853 40.6373 97.2996 40.7699 97.7873 40.7699C98.2797 40.7699 98.6964 40.6349 99.0373 40.3651C99.3782 40.0904 99.6362 39.7116 99.8114 39.2287C99.9914 38.741 100.081 38.1799 100.081 37.5455C100.081 36.9157 99.9937 36.3617 99.8185 35.8835C99.6433 35.4053 99.3853 35.0312 99.0444 34.7614C98.7035 34.4915 98.2844 34.3565 97.7873 34.3565C97.2949 34.3565 96.8782 34.4867 96.5373 34.7472C96.2011 35.0076 95.9431 35.3769 95.7631 35.8551C95.5832 36.3333 95.4933 36.8968 95.4933 37.5455ZM115.03 43H109.874V28.4545H115.072C116.536 28.4545 117.795 28.7457 118.851 29.3281C119.907 29.9058 120.719 30.7367 121.287 31.821C121.86 32.9053 122.146 34.2027 122.146 35.7131C122.146 37.2282 121.86 38.5303 121.287 39.6193C120.719 40.7083 119.902 41.544 118.837 42.1264C117.776 42.7088 116.507 43 115.03 43ZM112.949 40.3651H114.902C115.811 40.3651 116.576 40.2041 117.196 39.8821C117.821 39.5554 118.29 39.0511 118.602 38.3693C118.92 37.6828 119.078 36.7973 119.078 35.7131C119.078 34.6383 118.92 33.7599 118.602 33.0781C118.29 32.3963 117.823 31.8944 117.203 31.5724C116.583 31.2505 115.818 31.0895 114.909 31.0895H112.949V40.3651ZM129.339 43.2131C128.217 43.2131 127.251 42.9858 126.441 42.5312C125.636 42.072 125.016 41.4233 124.581 40.5852C124.145 39.7424 123.927 38.7457 123.927 37.5952C123.927 36.473 124.145 35.4882 124.581 34.6406C125.016 33.7931 125.629 33.1326 126.42 32.6591C127.216 32.1856 128.148 31.9489 129.218 31.9489C129.938 31.9489 130.608 32.0649 131.228 32.2969C131.853 32.5241 132.398 32.8674 132.862 33.3267C133.331 33.786 133.695 34.3636 133.956 35.0597C134.216 35.7509 134.346 36.5606 134.346 37.4886V38.3196H125.135V36.4446H131.498C131.498 36.009 131.404 35.6231 131.214 35.2869C131.025 34.9508 130.762 34.688 130.426 34.4986C130.094 34.3045 129.708 34.2074 129.268 34.2074C128.809 34.2074 128.402 34.3139 128.047 34.527C127.696 34.7353 127.422 35.017 127.223 35.3722C127.024 35.7225 126.922 36.1132 126.917 36.544V38.3267C126.917 38.8665 127.017 39.3329 127.216 39.7259C127.419 40.1188 127.706 40.4219 128.075 40.6349C128.444 40.848 128.882 40.9545 129.389 40.9545C129.725 40.9545 130.033 40.9072 130.312 40.8125C130.592 40.7178 130.831 40.5758 131.029 40.3864C131.228 40.197 131.38 39.965 131.484 39.6903L134.282 39.875C134.14 40.5473 133.849 41.1345 133.409 41.6364C132.973 42.1335 132.41 42.5218 131.718 42.8011C131.032 43.0758 130.239 43.2131 129.339 43.2131ZM145.397 35.2017L142.627 35.3722C142.58 35.1354 142.478 34.9223 142.322 34.733C142.166 34.5388 141.96 34.3849 141.704 34.2713C141.453 34.1529 141.153 34.0938 140.802 34.0938C140.333 34.0938 139.938 34.1932 139.616 34.392C139.294 34.5862 139.133 34.8466 139.133 35.1733C139.133 35.4337 139.237 35.6539 139.446 35.8338C139.654 36.0137 140.011 36.1581 140.518 36.267L142.493 36.6648C143.553 36.8826 144.344 37.233 144.865 37.7159C145.386 38.1989 145.646 38.8333 145.646 39.6193C145.646 40.3343 145.435 40.9616 145.014 41.5014C144.597 42.0412 144.024 42.4626 143.295 42.7656C142.571 43.0639 141.735 43.2131 140.788 43.2131C139.344 43.2131 138.193 42.9124 137.336 42.3111C136.484 41.705 135.984 40.8812 135.838 39.8395L138.814 39.6832C138.904 40.1236 139.121 40.4598 139.467 40.6918C139.813 40.919 140.255 41.0327 140.795 41.0327C141.325 41.0327 141.752 40.9309 142.074 40.7273C142.4 40.5189 142.566 40.2514 142.571 39.9247C142.566 39.6501 142.45 39.4252 142.223 39.25C141.995 39.0701 141.645 38.9328 141.172 38.8381L139.282 38.4616C138.217 38.2486 137.424 37.8793 136.903 37.3537C136.387 36.8281 136.129 36.1581 136.129 35.3438C136.129 34.643 136.318 34.0393 136.697 33.5327C137.081 33.026 137.618 32.6354 138.309 32.3608C139.005 32.0862 139.82 31.9489 140.752 31.9489C142.13 31.9489 143.215 32.2401 144.005 32.8224C144.801 33.4048 145.265 34.1979 145.397 35.2017ZM150.293 39.8608L150.3 36.2315H150.74L154.234 32.0909H157.707L153.013 37.5739H152.295L150.293 39.8608ZM147.551 43V28.4545H150.577V43H147.551ZM154.369 43L151.159 38.2486L153.176 36.1108L157.913 43H154.369Z" fill="white"/>
</svg>
