<svg width="154" height="48" viewBox="0 0 154 48" fill="none" xmlns="http://www.w3.org/2000/svg">
<circle cx="22.5" cy="24.5" r="22.5" fill="#2C8DFF"/>
<path d="M58.7713 19H55.4759L60.4972 4.45455H64.4602L69.4744 19H66.179L62.5355 7.77841H62.4219L58.7713 19ZM58.5653 13.2827H66.3494V15.6832H58.5653V13.2827ZM74.3004 4.45455V19H71.2251V4.45455H74.3004ZM76.2766 6.99006V4.45455H88.2227V6.99006H83.7695V19H80.7298V6.99006H76.2766ZM99.1744 4.45455H102.25V13.9006C102.25 14.9612 101.996 15.8892 101.49 16.6847C100.988 17.4801 100.285 18.1004 99.3803 18.5455C98.476 18.9858 97.4225 19.206 96.2198 19.206C95.0124 19.206 93.9566 18.9858 93.0522 18.5455C92.1478 18.1004 91.4447 17.4801 90.9428 16.6847C90.4409 15.8892 90.19 14.9612 90.19 13.9006V4.45455H93.2653V13.6378C93.2653 14.1918 93.386 14.6842 93.6275 15.1151C93.8737 15.5459 94.2193 15.8845 94.6644 16.1307C95.1095 16.3769 95.628 16.5 96.2198 16.5C96.8164 16.5 97.3349 16.3769 97.7752 16.1307C98.2203 15.8845 98.5636 15.5459 98.805 15.1151C99.0513 14.6842 99.1744 14.1918 99.1744 13.6378V4.45455ZM56.2642 43V28.4545H59.3395V34.456H65.5824V28.4545H68.6506V43H65.5824V36.9915H59.3395V43H56.2642ZM76.1009 43.2131C74.9787 43.2131 74.0128 42.9858 73.2031 42.5312C72.3982 42.072 71.7779 41.4233 71.3423 40.5852C70.9067 39.7424 70.6889 38.7457 70.6889 37.5952C70.6889 36.473 70.9067 35.4882 71.3423 34.6406C71.7779 33.7931 72.3911 33.1326 73.1818 32.6591C73.9773 32.1856 74.91 31.9489 75.9801 31.9489C76.6998 31.9489 77.3698 32.0649 77.9901 32.2969C78.6151 32.5241 79.1596 32.8674 79.6236 33.3267C80.0923 33.786 80.4569 34.3636 80.7173 35.0597C80.9777 35.7509 81.108 36.5606 81.108 37.4886V38.3196H71.8963V36.4446H78.2599C78.2599 36.009 78.1652 35.6231 77.9759 35.2869C77.7865 34.9508 77.5237 34.688 77.1875 34.4986C76.8561 34.3045 76.4702 34.2074 76.0298 34.2074C75.5705 34.2074 75.1634 34.3139 74.8082 34.527C74.4579 34.7353 74.1832 35.017 73.9844 35.3722C73.7855 35.7225 73.6837 36.1132 73.679 36.544V38.3267C73.679 38.8665 73.7784 39.3329 73.9773 39.7259C74.1809 40.1188 74.4673 40.4219 74.8366 40.6349C75.206 40.848 75.6439 40.9545 76.1506 40.9545C76.4867 40.9545 76.7945 40.9072 77.0739 40.8125C77.3532 40.7178 77.5923 40.5758 77.7912 40.3864C77.9901 40.197 78.1416 39.965 78.2457 39.6903L81.044 39.875C80.902 40.5473 80.6108 41.1345 80.1705 41.6364C79.7348 42.1335 79.1714 42.5218 78.4801 42.8011C77.7936 43.0758 77.0005 43.2131 76.1009 43.2131ZM86.108 28.4545V43H83.0824V28.4545H86.108ZM88.5316 47.0909V32.0909H91.5146V33.9233H91.6495C91.7821 33.6297 91.9738 33.3314 92.2248 33.0284C92.4805 32.7206 92.8119 32.465 93.2191 32.2614C93.631 32.053 94.1424 31.9489 94.7532 31.9489C95.5487 31.9489 96.2826 32.1572 96.9549 32.5739C97.6272 32.9858 98.1647 33.6084 98.5671 34.4418C98.9696 35.2704 99.1708 36.3097 99.1708 37.5597C99.1708 38.7765 98.9743 39.804 98.5813 40.642C98.1931 41.4754 97.6628 42.1075 96.9904 42.5384C96.3228 42.9645 95.5747 43.1776 94.7461 43.1776C94.159 43.1776 93.6594 43.0805 93.2475 42.8864C92.8403 42.6922 92.5065 42.4484 92.2461 42.1548C91.9857 41.8565 91.7868 41.5559 91.6495 41.2528H91.5572V47.0909H88.5316ZM91.4933 37.5455C91.4933 38.1941 91.5832 38.7599 91.7631 39.2429C91.9431 39.7259 92.2035 40.1023 92.5444 40.3722C92.8853 40.6373 93.2996 40.7699 93.7873 40.7699C94.2797 40.7699 94.6964 40.6349 95.0373 40.3651C95.3782 40.0904 95.6362 39.7116 95.8114 39.2287C95.9914 38.741 96.0813 38.1799 96.0813 37.5455C96.0813 36.9157 95.9937 36.3617 95.8185 35.8835C95.6433 35.4053 95.3853 35.0312 95.0444 34.7614C94.7035 34.4915 94.2844 34.3565 93.7873 34.3565C93.2949 34.3565 92.8782 34.4867 92.5373 34.7472C92.2011 35.0076 91.9431 35.3769 91.7631 35.8551C91.5832 36.3333 91.4933 36.8968 91.4933 37.5455ZM111.03 43H105.874V28.4545H111.072C112.536 28.4545 113.795 28.7457 114.851 29.3281C115.907 29.9058 116.719 30.7367 117.287 31.821C117.86 32.9053 118.146 34.2027 118.146 35.7131C118.146 37.2282 117.86 38.5303 117.287 39.6193C116.719 40.7083 115.902 41.544 114.837 42.1264C113.776 42.7088 112.507 43 111.03 43ZM108.949 40.3651H110.902C111.811 40.3651 112.576 40.2041 113.196 39.8821C113.821 39.5554 114.29 39.0511 114.602 38.3693C114.92 37.6828 115.078 36.7973 115.078 35.7131C115.078 34.6383 114.92 33.7599 114.602 33.0781C114.29 32.3963 113.823 31.8944 113.203 31.5724C112.583 31.2505 111.818 31.0895 110.909 31.0895H108.949V40.3651ZM125.339 43.2131C124.217 43.2131 123.251 42.9858 122.441 42.5312C121.636 42.072 121.016 41.4233 120.581 40.5852C120.145 39.7424 119.927 38.7457 119.927 37.5952C119.927 36.473 120.145 35.4882 120.581 34.6406C121.016 33.7931 121.629 33.1326 122.42 32.6591C123.216 32.1856 124.148 31.9489 125.218 31.9489C125.938 31.9489 126.608 32.0649 127.228 32.2969C127.853 32.5241 128.398 32.8674 128.862 33.3267C129.331 33.786 129.695 34.3636 129.956 35.0597C130.216 35.7509 130.346 36.5606 130.346 37.4886V38.3196H121.135V36.4446H127.498C127.498 36.009 127.404 35.6231 127.214 35.2869C127.025 34.9508 126.762 34.688 126.426 34.4986C126.094 34.3045 125.708 34.2074 125.268 34.2074C124.809 34.2074 124.402 34.3139 124.047 34.527C123.696 34.7353 123.422 35.017 123.223 35.3722C123.024 35.7225 122.922 36.1132 122.917 36.544V38.3267C122.917 38.8665 123.017 39.3329 123.216 39.7259C123.419 40.1188 123.706 40.4219 124.075 40.6349C124.444 40.848 124.882 40.9545 125.389 40.9545C125.725 40.9545 126.033 40.9072 126.312 40.8125C126.592 40.7178 126.831 40.5758 127.029 40.3864C127.228 40.197 127.38 39.965 127.484 39.6903L130.282 39.875C130.14 40.5473 129.849 41.1345 129.409 41.6364C128.973 42.1335 128.41 42.5218 127.718 42.8011C127.032 43.0758 126.239 43.2131 125.339 43.2131ZM141.397 35.2017L138.627 35.3722C138.58 35.1354 138.478 34.9223 138.322 34.733C138.166 34.5388 137.96 34.3849 137.704 34.2713C137.453 34.1529 137.153 34.0938 136.802 34.0938C136.333 34.0938 135.938 34.1932 135.616 34.392C135.294 34.5862 135.133 34.8466 135.133 35.1733C135.133 35.4337 135.237 35.6539 135.446 35.8338C135.654 36.0137 136.011 36.1581 136.518 36.267L138.493 36.6648C139.553 36.8826 140.344 37.233 140.865 37.7159C141.386 38.1989 141.646 38.8333 141.646 39.6193C141.646 40.3343 141.435 40.9616 141.014 41.5014C140.597 42.0412 140.024 42.4626 139.295 42.7656C138.571 43.0639 137.735 43.2131 136.788 43.2131C135.344 43.2131 134.193 42.9124 133.336 42.3111C132.484 41.705 131.984 40.8812 131.838 39.8395L134.814 39.6832C134.904 40.1236 135.121 40.4598 135.467 40.6918C135.813 40.919 136.255 41.0327 136.795 41.0327C137.325 41.0327 137.752 40.9309 138.074 40.7273C138.4 40.5189 138.566 40.2514 138.571 39.9247C138.566 39.6501 138.45 39.4252 138.223 39.25C137.995 39.0701 137.645 38.9328 137.172 38.8381L135.282 38.4616C134.217 38.2486 133.424 37.8793 132.903 37.3537C132.387 36.8281 132.129 36.1581 132.129 35.3438C132.129 34.643 132.318 34.0393 132.697 33.5327C133.081 33.026 133.618 32.6354 134.309 32.3608C135.005 32.0862 135.82 31.9489 136.752 31.9489C138.13 31.9489 139.215 32.2401 140.005 32.8224C140.801 33.4048 141.265 34.1979 141.397 35.2017ZM146.293 39.8608L146.3 36.2315H146.74L150.234 32.0909H153.707L149.013 37.5739H148.295L146.293 39.8608ZM143.551 43V28.4545H146.577V43H143.551ZM150.369 43L147.159 38.2486L149.176 36.1108L153.913 43H150.369Z" fill="black"/>
</svg>
